<?xml version="1.0" standalone="no"?>
<!DOCTYPE svg PUBLIC "-//W3C//DTD SVG 20010904//EN"
 "http://www.w3.org/TR/2001/REC-SVG-20010904/DTD/svg10.dtd">
<svg version="1.0" xmlns="http://www.w3.org/2000/svg"
 width="256.000000pt" height="256.000000pt" viewBox="0 0 256.000000 256.000000"
 preserveAspectRatio="xMidYMid meet">
<metadata>
Created by potrace 1.16, written by Peter Selinger 2001-2019
</metadata>
<g transform="translate(0.000000,256.000000) scale(0.100000,-0.100000)"
fill="#000000" stroke="none">
<path d="M995 2170 c-137 -82 -256 -157 -262 -167 -9 -12 -13 -66 -13 -183 l0
-166 -151 -74 c-83 -41 -155 -83 -160 -92 -5 -9 -9 -249 -9 -552 l0 -536 -60
0 c-47 0 -64 -4 -80 -20 -27 -27 -27 -93 0 -120 20 -20 33 -20 1020 -20 987 0
1000 0 1020 20 13 13 20 33 20 60 0 60 -25 80 -100 80 l-60 0 0 698 c0 543 -3
702 -12 714 -7 9 -197 127 -423 262 -327 197 -417 246 -445 246 -27 0 -90 -33
-285 -150z m649 -249 l356 -214 0 -653 0 -654 -80 0 -80 0 0 460 c0 447 -1
461 -20 480 -19 19 -33 20 -540 20 -507 0 -521 -1 -540 -20 -19 -19 -20 -33
-20 -380 0 -347 1 -361 20 -380 27 -27 93 -27 120 0 19 19 20 33 20 320 l0
300 400 0 400 0 0 -400 0 -400 -80 0 -80 0 0 220 c0 207 -1 221 -20 240 -19
19 -33 20 -220 20 -187 0 -201 -1 -220 -20 -19 -19 -20 -33 -20 -240 l0 -220
-240 0 -240 0 0 493 0 492 315 158 c173 86 317 157 320 157 3 0 5 -31 5 -70 0
-57 4 -74 20 -90 27 -27 93 -27 120 0 18 18 20 33 20 180 0 147 -2 162 -20
180 -37 37 -77 26 -270 -70 -99 -49 -182 -90 -185 -90 -3 0 -5 36 -5 79 l0 80
198 120 c108 65 200 119 203 118 3 -1 167 -98 363 -216z m-284 -1361 l0 -160
-80 0 -80 0 0 160 0 160 80 0 80 0 0 -160z"/>
</g>
</svg>
